# Blender v2.81 (sub 16) OBJ File: ''
# www.blender.org
mtllib Cube2.mtl
o Cube
v -0.500000 0.250000 -0.500000
v -0.250000 0.500000 -0.500000
v -0.466506 0.375000 -0.500000
v -0.375000 0.466506 -0.500000
v -0.250000 -0.500000 -0.500000
v -0.500000 -0.250000 -0.500000
v -0.375000 -0.466506 -0.500000
v -0.466506 -0.375000 -0.500000
v 0.250000 0.500000 -0.500000
v 0.500000 0.250000 -0.500000
v 0.375000 0.466506 -0.500000
v 0.466506 0.375000 -0.500000
v 0.500000 -0.250000 -0.500000
v 0.250000 -0.500000 -0.500000
v 0.466506 -0.375000 -0.500000
v 0.375000 -0.466506 -0.500000
v -0.250000 0.500000 0.500000
v -0.500000 0.250000 0.500000
v -0.375000 0.466506 0.500000
v -0.466506 0.375000 0.500000
v -0.500000 -0.250000 0.500000
v -0.250000 -0.500000 0.500000
v -0.466506 -0.375000 0.500000
v -0.375000 -0.466506 0.500000
v 0.500000 0.250000 0.500000
v 0.250000 0.500000 0.500000
v 0.466506 0.375000 0.500000
v 0.375000 0.466506 0.500000
v 0.250000 -0.500000 0.500000
v 0.500000 -0.250000 0.500000
v 0.375000 -0.466506 0.500000
v 0.466506 -0.375000 0.500000
vt 0.091145 0.743739
vt 0.091145 0.475048
vt 0.225490 0.475048
vt 0.225490 0.743738
vt 0.329820 0.475207
vt 0.464165 0.475210
vt 0.464159 0.743900
vt 0.329814 0.743897
vt 0.568405 0.744051
vt 0.568405 0.475361
vt 0.702750 0.475361
vt 0.702750 0.744051
vt 0.702758 0.206914
vt 0.736297 0.215901
vt 0.760850 0.240454
vt 0.769837 0.273994
vt 0.769837 0.408153
vt 0.760850 0.441692
vt 0.736297 0.466245
vt 0.702758 0.475232
vt 0.568599 0.475232
vt 0.535059 0.466245
vt 0.510506 0.441692
vt 0.501519 0.408153
vt 0.501519 0.273994
vt 0.510506 0.240454
vt 0.535059 0.215901
vt 0.568599 0.206914
vt 0.056373 0.743739
vt 0.056373 0.475048
vt 0.021602 0.743739
vt 0.021602 0.475048
vt 0.772267 0.743988
vt 0.772267 0.475298
vt 0.807038 0.475298
vt 0.807038 0.743988
vt 0.737521 0.475361
vt 0.737521 0.744051
vt 0.772292 0.475361
vt 0.772292 0.744051
vt 0.498936 0.475211
vt 0.498930 0.743901
vt 0.260261 0.475048
vt 0.260261 0.743738
vt 0.295032 0.475048
vt 0.295032 0.743738
vt 0.295042 0.743896
vt 0.295049 0.475206
vt 0.533634 0.744051
vt 0.533633 0.475361
vt 0.498862 0.744051
vt 0.498862 0.475361
vt 0.976154 0.475298
vt 0.976154 0.743988
vt 0.941383 0.743988
vt 0.941383 0.475298
vn -0.1305 -0.9914 0.0000
vn 0.1305 -0.9914 -0.0000
vn 0.9914 -0.1305 -0.0000
vn 0.9914 0.1305 -0.0000
vn -0.1305 0.9914 0.0000
vn 0.1305 0.9914 -0.0000
vn -0.0000 0.0000 -1.0000
vn -0.5000 -0.8660 0.0000
vn -0.8660 -0.5000 0.0000
vn -0.9914 -0.1305 0.0000
vn 0.5000 0.8660 -0.0000
vn 0.8660 0.5000 -0.0000
vn 0.5000 -0.8660 -0.0000
vn 0.8660 -0.5000 -0.0000
vn -0.5000 0.8660 0.0000
vn -0.8660 0.5000 0.0000
vn -0.9914 0.1305 0.0000
usemtl Material
s 1
f 22/1/1 5/2/1 14/3/2 29/4/2
f 13/5/3 10/6/4 25/7/4 30/8/3
f 2/9/5 17/10/5 26/11/6 9/12/6
f 5/13/7 7/14/7 8/15/7 6/16/7 1/17/7 3/18/7 4/19/7 2/20/7 9/21/7 11/22/7 12/23/7 10/24/7 13/25/7 15/26/7 16/27/7 14/28/7
f 5/2/1 22/1/1 24/29/8 7/30/8
f 7/30/8 24/29/8 23/31/9 8/32/9
f 8/33/9 23/34/9 21/35/10 6/36/10
f 9/12/6 26/11/6 28/37/11 11/38/11
f 11/38/11 28/37/11 27/39/12 12/40/12
f 12/41/12 27/42/12 25/7/4 10/6/4
f 29/4/2 14/3/2 16/43/13 31/44/13
f 31/44/13 16/43/13 15/45/14 32/46/14
f 32/47/14 15/48/14 13/5/3 30/8/3
f 17/10/5 2/9/5 4/49/15 19/50/15
f 19/50/15 4/49/15 3/51/16 20/52/16
f 20/53/16 3/54/16 1/55/17 18/56/17
f 21/35/10 18/56/17 1/55/17 6/36/10
